HIERARCHY
ROOT Hips
{
 OFFSET 0.000000 0.000000 0.000000
 CHANNELS 6 Xposition Yposition Zposition Yrotation Xrotation Zrotation
 JOINT Chest
 {
  OFFSET 0.000000 9.581000 -0.001100
  CHANNELS 3 Yrotation Xrotation Zrotation
  JOINT Chest2
  {
   OFFSET 0.000000 9.561100 0.002200
   CHANNELS 3 Yrotation Xrotation Zrotation
   JOINT Chest3
   {
    OFFSET 0.000000 9.521100 0.000000
    CHANNELS 3 Yrotation Xrotation Zrotation
    JOINT Chest4
    {
     OFFSET 0.000000 9.511400 0.000000
     CHANNELS 3 Yrotation Xrotation Zrotation
     JOINT Neck
     {
      OFFSET 0.000000 14.375100 0.000000
      CHANNELS 3 Yrotation Xrotation Zrotation
      JOINT Head
      {
       OFFSET 0.000000 8.901200 0.004600
       CHANNELS 3 Yrotation Xrotation Zrotation
       End Site
       {
        OFFSET 0.000000 16.962200 0.002400
       }
      }
     }
     JOINT RightCollar
     {
      OFFSET -2.920100 9.518800 0.000000
      CHANNELS 3 Yrotation Xrotation Zrotation
      JOINT RightShoulder
      {
       OFFSET -13.664500 0.000000 0.000000
       CHANNELS 3 Yrotation Xrotation Zrotation
       JOINT RightElbow
       {
        OFFSET 0.000000 -29.999200 0.000000
        CHANNELS 3 Yrotation Xrotation Zrotation
        JOINT RightWrist
        {
         OFFSET 0.000000 -24.253600 0.000000
         CHANNELS 3 Yrotation Xrotation Zrotation
         End Site
         {
          OFFSET 0.000000 -17.918900 0.000000
         }
        }
       }
      }
     }
     JOINT LeftCollar
     {
      OFFSET 2.920100 9.518800 0.000000
      CHANNELS 3 Yrotation Xrotation Zrotation
      JOINT LeftShoulder
      {
       OFFSET 13.664500 0.000000 0.000000
       CHANNELS 3 Yrotation Xrotation Zrotation
       JOINT LeftElbow
       {
        OFFSET 0.000000 -29.999200 0.000000
        CHANNELS 3 Yrotation Xrotation Zrotation
        JOINT LeftWrist
        {
         OFFSET 0.000000 -24.253600 0.000000
         CHANNELS 3 Yrotation Xrotation Zrotation
         End Site
         {
          OFFSET 0.000000 -17.918900 0.000000
         }
        }
       }
      }
     }
    }
   }
  }
 }
 JOINT RightHip
 {
  OFFSET -7.797300 0.005300 0.000500
  CHANNELS 3 Yrotation Xrotation Zrotation
  JOINT RightKnee
  {
   OFFSET 0.000000 -40.663400 -0.000500
   CHANNELS 3 Yrotation Xrotation Zrotation
   JOINT RightAnkle
   {
    OFFSET 0.000000 -39.523700 -0.000900
    CHANNELS 3 Yrotation Xrotation Zrotation
    JOINT RightToe
    {
     OFFSET 0.000000 -6.418000 14.485300
     CHANNELS 3 Yrotation Xrotation Zrotation
     End Site
     {
      OFFSET 0.000000 -1.465200 6.326400
     }
    }
   }
  }
 }
 JOINT LeftHip
 {
  OFFSET 7.797300 0.005300 0.000500
  CHANNELS 3 Yrotation Xrotation Zrotation
  JOINT LeftKnee
  {
   OFFSET 0.000000 -40.663400 -0.000500
   CHANNELS 3 Yrotation Xrotation Zrotation
   JOINT LeftAnkle
   {
    OFFSET 0.000000 -39.523700 -0.000900
    CHANNELS 3 Yrotation Xrotation Zrotation
    JOINT LeftToe
    {
     OFFSET 0.000000 -6.418000 14.485300
     CHANNELS 3 Yrotation Xrotation Zrotation
     End Site
     {
      OFFSET 0.000000 -1.465200 6.326400
     }
    }
   }
  }
 }
}
MOTION
Frames: 5
Frame Time: 0.008333
0.000000 86.422400 0.000000 0.000000 -5.767877 0.000000 0.000000 11.653817 0.000000 0.000000 -5.885947 0.000000 0.000000 -0.000000 0.000000 0.000000 -0.000000 0.000000 0.000000 12.528835 0.000000 0.000000 0.711642 0.000000 0.000000 -0.000000 0.000000 0.000000 0.000000 -90.000000 0.000000 -2.309062 0.000000 0.000000 2.309062 0.000000 0.000000 -0.000000 0.000000 0.000000 -0.000000 90.000000 0.000000 -2.309062 0.000000 0.000000 2.309062 0.000000 0.000000 8.520406 0.000000 0.000000 1.905762 0.000000 -0.000000 -4.658285 0.000000 0.000000 -0.000000 0.000000 0.000000 8.520406 0.000000 0.000000 1.905762 0.000000 -0.000000 -4.658285 0.000000 0.000000 -0.000000 0.000000
-22.050565 126.591675 73.534591 -179.758873 -32.101318 -3.570897 -4.286009 18.697492 -1.442488 -0.478885 2.188460 -0.115280 -0.735687 3.569672 -0.238231 -3.686074 16.145138 -1.308965 4.236132 22.551304 -2.009550 5.056185 -1.404784 -3.151154 -4.554655 -6.218139 -4.261738 11.097531 4.184305 -23.906806 105.760106 -78.945908 -52.788506 -0.800931 -31.365325 -41.509397 -4.683603 -0.659339 -0.040533 10.837657 -7.583097 6.396488 167.561421 -77.557838 -174.261129 -4.611124 -17.574946 25.996542 -4.595298 -54.403282 8.246581 -33.391432 70.325688 -28.892318 22.486544 35.757075 11.791190 0.011952 0.070266 0.005307 -10.491405 -45.070511 -2.757373 43.383974 76.066249 35.387307 2.273065 -1.369596 6.228434 -0.003576 0.084075 -0.001577
-22.051669 126.593262 73.544825 -179.747718 -32.151491 -3.589912 -4.227329 18.671397 -1.449621 -0.449285 2.176862 -0.144833 -0.770068 3.634461 -0.210127 -3.679739 16.176927 -1.284521 4.169462 22.590126 -1.971718 4.943527 -1.372438 -3.055604 -4.635374 -6.269011 -4.347814 11.085746 4.232171 -23.856160 105.949677 -79.045079 -52.926419 -0.686928 -31.411073 -41.636259 -4.702611 -0.667903 0.009054 10.700905 -7.774034 6.453760 170.537285 -75.757458 -177.402675 -5.617107 -17.267663 25.376180 -4.371692 -54.373096 8.152624 -33.461676 70.284748 -28.897522 22.414592 35.823625 11.839820 0.009640 0.046395 0.004278 -10.473148 -45.016514 -2.767904 43.443464 76.027066 35.457925 2.251197 -1.344426 6.230455 -0.003367 0.080029 -0.001485
-22.050318 126.597957 73.551350 -179.731650 -32.233960 -3.629184 -4.168975 18.686969 -1.485652 -0.465319 2.215166 -0.115548 -0.781903 3.659097 -0.178645 -3.654745 16.191951 -1.281105 4.117893 22.597257 -1.941856 4.784953 -1.383660 -2.971433 -4.676875 -6.319491 -4.416374 11.159176 4.356160 -23.802772 106.017668 -79.135839 -53.056615 -0.584929 -31.438977 -41.791434 -4.694128 -0.716056 0.126406 10.548509 -7.966712 6.491970 172.585153 -73.874365 -179.574655 -6.641112 -17.148105 24.914685 -4.168002 -54.312068 8.083765 -33.689472 70.233678 -29.031244 22.379197 35.887741 11.828493 0.053629 0.034543 0.023776 -10.410969 -44.918219 -2.780414 43.404625 75.994229 35.449253 2.222315 -1.319129 6.247984 -0.002800 0.073863 -0.001234
-22.054764 126.597882 73.565190 -179.770273 -32.265566 -3.606917 -4.129134 18.703309 -1.519976 -0.461941 2.220254 -0.104532 -0.772705 3.661550 -0.177903 -3.564291 16.197640 -1.328176 3.965171 22.567716 -1.862978 4.670600 -1.425573 -2.909487 -4.755006 -6.358362 -4.401972 11.292365 4.545435 -23.741254 105.992202 -79.210831 -53.180854 -0.502242 -31.449835 -41.932914 -4.786277 -0.729413 0.253233 10.434474 -8.259852 6.611492 174.202440 -71.910804 178.723560 -7.684948 -17.032404 24.682909 -3.884721 -54.308083 7.976995 -33.871084 70.145703 -29.151596 22.404299 35.995155 11.921713 0.031368 0.014211 0.013902 -10.278610 -44.873326 -2.812502 43.376243 75.915276 35.416695 2.165125 -1.234993 6.308894 -0.020788 0.037521 -0.009215
